<?xml version="1.0" encoding="utf-8"?>
<!-- Generator: Adobe Illustrator 28.3.0, SVG Export Plug-In . SVG Version: 6.00 Build 0)  -->
<svg version="1.1" id="图层_1" xmlns="http://www.w3.org/2000/svg" xmlns:xlink="http://www.w3.org/1999/xlink" x="0px" y="0px"
	 viewBox="0 0 460.38 348.09" style="enable-background:new 0 0 460.38 348.09;" xml:space="preserve">
<style type="text/css">
	.st0{fill:#A8B4E0;}
</style>
<g>
	<path class="st0" d="M300.71,166.4c1.6-5.02,4.47-9.68,5.29-14.93c2.88-18.52-1.22-35.45-16.2-50.15c-2.56-2.51-4.99-5.09-8.17-7.2
		c-2.27-1.5-3.03-1.02-3.77,0.89c-1.31,3.39-3.88,6.06-7.36,8.22c-1.98,1.23-2.02,2.05,0.09,3.8c16.94,13.93,20.81,30.6,14.47,48.98
		c-2.36,6.83-7.48,12.62-13.25,17.94c-2.06,1.9-4.6,1.83-6.84,0.12c-2.1-1.6-1.22-3.04,0.41-4.64c7.58-7.41,13.19-15.55,13.75-25.44
		c0.78-13.7-4.71-25.35-17.88-34.24c-4.45-3-10.21-1.79-13.35,2.15c-4.18,5.26-8.34,10.53-12.55,15.77
		c-1.39,1.72-3.26,3.4-5.94,2.05c-4.03-2.03-5.49,0.09-7.21,2.31c-5.5,7.06-6.55,7.14-15.32,2.18c-4.86-2.75-10.01-5.18-14.87-7.93
		c-3.08-1.74-5.57-3.67-1.73-6.86c1.75-1.45,2.59-3.61,4.01-5.35c0.8-0.98,1.52-2.11,0.05-2.69c-5.23-2.09-3.11-5.26-1.3-7.62
		c7.8-10.14,16.03-20.07,24.07-30.1c4.34-5.41,8.54-10.9,12.96-16.26c4.07-4.94,8.89-9.02,16.89-9.81c3.14-0.31,6.31-0.94,8.22-3.9
		c1.6-2.49,4.34-2.94,7.78-0.69c4.88,3.19,10.47,5.68,15.76,8.46c2.62,1.37,2.79,3.44,1.07,5.01c-2.15,1.96-2.04,3.64-1.55,6.05
		c0.93,4.58,0.78,9.2-1.3,13.76c-1.36,2.99,0.07,5.82,3.29,7.83c9.2,5.72,17.19,12.35,23.21,20.37
		c7.32,9.74,11.46,20.38,12.05,31.73c0.4,7.77,0.03,15.45-2.88,23.16C310.65,164.6,308.96,167.96,300.71,166.4z M268.9,72.04
		c2.09-8.06-0.94-14.07-7.95-16.65c-7.54-2.77-17.33-1.43-21.27,3.39c-12.34,15.1-24.43,30.32-36.65,45.48
		c-1.53,1.9-1.23,3.06,1.3,4.34c7.35,3.73,14.5,7.71,21.76,11.55c2.08,1.1,3.7,1.46,5.32-0.97c2.34-3.51,5.14-6.91,8.33-9.96
		c3.28-3.13,1.58-4.81-1.46-7.03c-12.78-9.35-8.2-26.47,7.33-31.81C253.98,67.52,261.19,69.23,268.9,72.04z M255.03,75.86
		c-7.38-0.63-15.12,4.76-15.76,12.43c-0.53,6.26,8.1,13,15.96,12.98c7.8-0.02,15.21-6.07,15.32-12.5
		C270.68,81.61,263.82,75.91,255.03,75.86z M218.35,124.71c-0.88-0.64-1.48-1.19-2.21-1.59c-2.91-1.59-5.78-3.23-8.81-4.64
		c-1.9-0.88-3.56-3.33-6.31-0.21c-2.52,2.86-1.22,4.21,1.63,5.64c2.67,1.34,5.39,2.62,8.03,3.99c1.21,0.63,2.44,2.11,3.79,1.08
		C216.01,127.8,216.37,125.79,218.35,124.71z"/>
	<path class="st0" d="M202.43,204.76c3.15,2.7,6.2,5.47,9.48,8.04c0.96,0.75,2.22,1.98,3.81,1.43c1.47-0.51,0.72-1.88,0.72-2.85
		c0.06-9.14,0.03-18.29,0.03-28.14c-8.9,4.81-14.22,11.03-19.45,17.35c-6.99,8.46-14.17,16.83-25.57,21.91
		c-5.59,2.49-11.71,3.64-18.11,3.82c-2.86,0.08-4.93-0.91-5.26-3.16c-0.37-2.47,2.09-3.64,4.59-3.59c5.97,0.12,6.77-2.34,6.63-6.48
		c-0.35-9.81-0.2-19.64,0.02-29.46c0.07-3.13-0.57-5.01-5.13-4.5c-3.68,0.41-6.04-1.17-5.85-3.99c0.18-2.73,2.88-3.5,6.16-3.18
		c11.34,1.11,21.06,4.7,28.77,11.65c5.56,5.01,5.64,4.95-0.08,10.43c-3.66-3.11-6.56-6.79-10.96-9.28c-0.73-0.41-1.28-1.2-2.38-0.85
		c-1.18,0.37-0.8,1.27-0.81,1.95c-0.03,8.76,0.03,17.53-0.03,26.29c-0.02,2.8,1.38,2.71,3.59,1.34c6.15-3.81,10.4-8.93,14.79-13.96
		c7.74-8.88,14.61-18.38,27.12-23.78c20.74-8.96,39.57-0.74,51.57,11.16c2.76,2.74-1.15,3.95-2.54,5.57
		c-2.15,2.51-3.27-0.47-3.98-1.06c-3.35-2.81-6.6-5.67-11.56-8.31c0,5.68,0,10.85,0,16.02c0,5.08,0,10.15,0,15.7
		c5.3-1.46,8.24-4.39,11.09-7.19c7.87-7.72,13.53-16.73,22.12-24.06c7.91-6.75,17.29-10.75,28.77-11.62
		c3.38-0.26,5.44,0.62,5.56,3.57c0.12,2.87-2.21,3.87-5.07,3.57c-5.83-0.61-6.32,1.91-6.23,5.62c0.22,9.52,0.27,19.04-0.01,28.56
		c-0.11,3.74,0.67,6.23,6.07,6.16c0.53-0.01,1.06,0.37,1.6,0.4c2.83,0.17,3.83,1.39,3.69,3.62c-0.16,2.54-2.21,2.92-4.63,2.85
		c-11.79-0.31-21.33-4.29-29.33-11.21c-3.21-2.77-6.84-4.91-2.14-8.77c1.34-1.11,2.06-1.63,3.68-0.18c2.87,2.58,6.07,4.91,9.12,7.35
		c0.67,0.54,1.38,1.18,2.39,0.93c1.47-0.36,0.99-1.43,0.99-2.29c0.06-8.61,0.13-17.22,0.18-25.83c0.01-0.88,0.23-1.94-1-2.4
		c-1.32-0.49-1.91,0.54-2.76,1.09c-8.12,5.29-13.27,12.48-19.19,19.19c-6.25,7.07-12.59,13.91-22.45,18.34
		c-14.84,6.66-31.15,3.91-42.71-3.4c-1.88-1.19-3.58-2.59-5.2-4.01C196.96,210.26,196.99,210.24,202.43,204.76z M239.01,199.17
		c0-5.43-0.15-10.86,0.06-16.28c0.11-2.65-0.72-4.01-4.32-3.69c-1.66,0.15-3.38,0.11-5.05-0.01c-3.04-0.22-4.32,0.59-4.29,3.26
		c0.15,11.16,0.19,22.32-0.01,33.48c-0.07,4.2,3.83,3.79,6.55,3.63c2.73-0.15,7.3,1,7.1-3.66
		C238.81,210.34,239,204.75,239.01,199.17z"/>
	<path class="st0" d="M299.09,273.25c0-5.43,0.13-10.87-0.06-16.29c-0.09-2.44,0.62-3.5,3.96-3.42c7.49,0.17,15.03-0.31,22.47,0.16
		c5,0.32,9.92,1.91,12.05,6.2c2.01,4.05,1.72,8.04-2.58,11.09c-2.05,1.46-1.33,2.1,0.36,2.97c4.99,2.54,6.92,6.26,5.46,10.74
		c-1.7,5.25-5.39,7.16-12.53,7.89c-8.23,0.85-16.48,0.15-24.7,0.56c-3.33,0.17-4.64-0.78-4.51-3.61
		C299.27,284.12,299.1,278.68,299.09,273.25z M317.72,287.08c2.45-0.14,5.6,0.23,8.74-0.55c3.33-0.84,5.45-2.15,5.37-5.27
		c-0.08-3.29-2.8-4.67-5.99-4.91c-4.99-0.38-10.06-0.09-15.09-0.1c-1.46,0-2.29,0.35-2.69,1.68c-2.05,6.78,0.08,9.16,8.41,9.15
		C316.65,287.08,316.84,287.08,317.72,287.08z M316.48,270.12c2.62-0.24,5.61,0.29,8.52-0.77c2.57-0.93,4.54-1.92,4.49-4.52
		c-0.05-2.82-2.11-3.83-5.13-4.5c-3.9-0.86-7.83-0.13-11.72-0.48c-3.74-0.34-4.84,0.87-4.67,3.82
		C308.41,271.02,306.7,269.97,316.48,270.12z"/>
	<path class="st0" d="M229.31,292.48c-11.12,3.34-13.79-3.78-18.35-8.51c-1.34-1.39-1.71-3.39-4.13-4.11
		c-6.42-1.89-10.28,0.27-10.27,5.79c0,1.21-0.14,2.43,0.03,3.62c0.4,2.79-0.58,4.09-4.52,4.01c-3.6-0.07-4.93-0.88-4.88-3.89
		c0.17-10.71,0.16-21.42-0.05-32.13c-0.06-3,1.14-3.88,4.78-3.75c6.36,0.22,12.74,0.04,19.11,0.08
		c10.64,0.06,17.34,5.57,17.05,14.05c-0.14,4.09-2.63,7.17-7.09,8.9c-3.35,1.3-3.33,2.64-1.39,4.78
		C222.84,284.92,225.94,288.6,229.31,292.48z M196.56,266.22c-0.03,6.56-0.03,6.57,8.34,6.55c2.24,0,4.5-0.01,6.73-0.15
		c4.26-0.28,6.94-2.24,7.35-5.59c0.41-3.36-1.45-5.64-5.99-6.43c-2.78-0.49-5.5-0.7-8.31-0.69
		C196.59,259.94,196.59,259.92,196.56,266.22z"/>
	<path class="st0" d="M288.85,273.67c-0.49,13.2-12.7,20.29-26.23,20.39c-13.75,0.1-25.83-7.91-25.91-20.67
		c-0.09-12.7,13.79-20.72,25.97-20.68C276.43,252.75,289.05,261.24,288.85,273.67z M262.78,259.85
		c-10.46-0.03-16.7,4.98-16.67,13.38c0.03,8.24,6.6,13.76,16.31,13.92c11.06,0.18,16.19-6.29,17.16-13.57
		C280.55,266.36,272.07,259.88,262.78,259.85z"/>
	<path class="st0" d="M350.88,272.89c0-5.43,0.14-10.87-0.06-16.3c-0.09-2.4,0.89-3.1,3.82-3.06c9.56,0.12,19.12,0.13,28.68-0.01
		c3.09-0.05,3.73,0.91,3.67,3.16c-0.05,2.11-0.25,3.37-3.54,3.28c-6.37-0.18-12.75,0.07-19.12-0.09c-3.29-0.08-4.66,0.56-4.53,3.5
		c0.36,8.1-0.86,6.42,7.88,6.62c3.93,0.09,7.87,0.01,11.81-0.04c2.87-0.04,5.37-0.42,5.32,3.28c-0.05,3.53-2.49,2.97-5.05,2.97
		c-5.25,0-10.5,0.13-15.75-0.03c-3.11-0.09-4.17,0.68-4.21,3.3c-0.13,7.59-0.29,7.59,8.85,7.58c5.25-0.01,10.5,0.07,15.75-0.01
		c2.41-0.04,3.89,0.24,3.69,2.66c-0.16,1.95,0.02,3.48-3.43,3.44c-9.93-0.12-19.87-0.07-29.8,0.06c-3.33,0.04-4.07-1.14-4-3.55
		C351,284.06,350.89,278.47,350.88,272.89z"/>
	<path class="st0" d="M138,273.04c0-5.43,0.08-10.86-0.04-16.29c-0.05-2.13,0.34-3.32,3.59-3.23c6.74,0.19,13.59-0.54,20.21,0.18
		c13.17,1.43,19.76,8.13,14.71,19.07c-2.04,4.43-7.21,6.26-12.69,6.98c-4.04,0.53-8.19,0.78-12.28,0.74
		c-3.51-0.04-4.72,0.99-4.35,3.7c0.2,1.49-0.18,3.04,0.07,4.52c0.55,3.25-0.77,4.49-5.11,4.52c-4.52,0.03-4.15-2.01-4.13-4.36
		C138.03,283.6,138,278.32,138,273.04z M147.18,267.3c0.07,7.16,0.07,7.16,8.87,7.12c0.94,0,1.91,0.11,2.8-0.05
		c3.3-0.6,6.57-1.46,8.28-4.04c3.18-4.81,0.47-8.67-6.87-10.09C149.54,258.18,147.1,259.5,147.18,267.3z"/>
	<path class="st0" d="M92.94,267.46c0,3.47-0.1,6.95,0.02,10.42c0.18,5.36,4.96,9.08,11.7,9.25c7.2,0.18,10.98-2.56,12.05-8.22
		c1.37-7.23,0.53-14.47,0.57-21.71c0.02-3.06,1.33-3.7,4.87-3.75c3.83-0.06,4.82,1.03,4.58,3.9c-0.67,7.96,0.89,15.97-1.04,23.92
		c-2.07,8.55-12.97,14.54-23.66,12.77c-12.08-2-17.64-7.01-18.2-17.01c-0.38-6.79,0.02-13.6-0.28-20.39c-0.15-3.35,2.24-3.08,5-3.11
		c2.75-0.04,4.67,0.09,4.4,3.06c-0.33,3.61-0.08,7.25-0.08,10.87C92.9,267.46,92.92,267.46,92.94,267.46z"/>
	<path class="st0" d="M197.92,161.09c-14.61,0-29.22-0.03-43.83,0.03c-2.87,0.01-5.59-0.15-5.65-2.99c-0.07-3.01,2.59-3.4,5.8-3.39
		c29.03,0.06,58.07,0.07,87.1-0.04c3.33-0.01,6.06,0.86,6.08,3.34c0.03,2.77-3.15,3.12-6.23,3.1c-14.42-0.08-28.84-0.03-43.27-0.03
		C197.92,161.1,197.92,161.09,197.92,161.09z"/>
</g>
</svg>
